# Quadratische Pyramide MIT vn (facettiert/flat-shaded), Basis als Quad-Face —
# testet Fan-Triangulierung von Polygonen + v//vn-Parsing.
v -1.000000 0.000000 1.000000
v 1.000000 0.000000 1.000000
v 1.000000 0.000000 -1.000000
v -1.000000 0.000000 -1.000000
v 0.000000 1.600000 0.000000
vn 0.000000 -1.000000 0.000000
vn 0.000000 0.530000 0.848000
vn 0.848000 0.530000 0.000000
vn 0.000000 0.530000 -0.848000
vn -0.848000 0.530000 0.000000
f 1//1 4//1 3//1 2//1
f 5//2 1//2 2//2
f 5//3 2//3 3//3
f 5//4 3//4 4//4
f 5//5 4//5 1//5
